<?xml version="1.0" standalone="no"?>
<!DOCTYPE svg PUBLIC "-//W3C//DTD SVG 20010904//EN"
 "http://www.w3.org/TR/2001/REC-SVG-20010904/DTD/svg10.dtd">
<svg version="1.0" xmlns="http://www.w3.org/2000/svg"
 width="301.000000pt" height="301.000000pt" viewBox="0 0 301.000000 301.000000"
 preserveAspectRatio="xMidYMid meet">
<metadata>
Created by potrace 1.14, written by Peter Selinger 2001-2017
</metadata>
<g transform="translate(0.000000,301.000000) scale(0.100000,-0.100000)"
fill="#000000" stroke="none">
<path d="M10 1510 l0 -1500 1500 0 1500 0 0 1500 0 1500 -1500 0 -1500 0 0
-1500z m1495 391 c90 -19 250 -75 260 -91 3 -5 -9 -5 -27 0 -73 22 -241 31
-348 20 -189 -18 -312 -63 -380 -136 -33 -36 -40 -51 -40 -84 0 -107 170 -196
418 -220 101 -9 252 -1 340 19 63 14 41 -4 -46 -38 -169 -65 -371 -91 -561
-72 -259 26 -451 107 -523 220 -114 180 118 361 517 405 80 8 302 -4 390 -23z
m405 -181 c261 -27 477 -128 526 -245 73 -176 -156 -337 -536 -376 -196 -20
-435 13 -587 82 -35 15 -63 30 -63 32 0 2 28 -3 63 -10 92 -21 332 -20 431 1
205 45 326 137 302 231 -18 73 -133 143 -289 177 -113 24 -348 26 -446 5 -129
-28 9 36 160 74 137 35 285 45 439 29z"/>
</g>
</svg>
