<svg width="40" height="40" viewBox="0 0 40 40" fill="none" xmlns="http://www.w3.org/2000/svg">
<path d="M22.0576 2.76758C22.0576 1.66301 21.1622 0.767578 20.0576 0.767578C18.953 0.767578 18.0576 1.66301 18.0576 2.76758H22.0576ZM18.0576 37.7676V39.7676H22.0576V37.7676H18.0576ZM18.0576 2.76758V37.7676H22.0576V2.76758H18.0576Z" fill="#D64936"/>
<path d="M37.5576 22.2676L39.5576 22.2676L39.5576 18.2676L37.5576 18.2676L37.5576 22.2676ZM2.55762 18.2676C1.45305 18.2676 0.557617 19.163 0.557617 20.2676C0.557617 21.3721 1.45305 22.2676 2.55762 22.2676L2.55762 18.2676ZM37.5576 18.2676L2.55762 18.2676L2.55762 22.2676L37.5576 22.2676L37.5576 18.2676Z" fill="#D64936"/>
<path d="M33.8673 9.30874L35.2816 7.89453L32.4531 5.0661L31.0389 6.48032L33.8673 9.30874ZM6.29017 31.2291C5.50913 32.0101 5.50913 33.2764 6.29017 34.0575C7.07122 34.8385 8.33755 34.8385 9.1186 34.0575L6.29017 31.2291ZM31.0389 6.48032L6.29017 31.2291L9.1186 34.0575L33.8673 9.30874L31.0389 6.48032Z" fill="#D64936"/>
<path d="M31.0389 34.0548L32.4531 35.4691L35.2816 32.6406L33.8673 31.2264L31.0389 34.0548ZM9.1186 6.47767C8.33756 5.69662 7.07123 5.69662 6.29018 6.47767C5.50913 7.25872 5.50913 8.52505 6.29018 9.3061L9.1186 6.47767ZM33.8673 31.2264L9.1186 6.47767L6.29018 9.3061L31.0389 34.0548L33.8673 31.2264Z" fill="#D64936"/>
</svg>
