<svg width="24" height="23" viewBox="0 0 24 23" fill="none" xmlns="http://www.w3.org/2000/svg">
<g clip-path="url(#clip0_1042_3585)">
<path d="M23.0497 11.7924C23.0497 5.61377 18.0409 0.60498 11.8623 0.60498C5.6836 0.60498 0.674805 5.61377 0.674805 11.7924C0.674805 17.3763 4.76588 22.0047 10.1142 22.844V15.0263H7.27366V11.7924H10.1142V9.3277C10.1142 6.52385 11.7845 4.97508 14.3399 4.97508C15.5635 4.97508 16.8442 5.19359 16.8442 5.19359V7.94675H15.4335C14.0438 7.94675 13.6103 8.80919 13.6103 9.69479V11.7924H16.7131L16.2171 15.0263H13.6103V22.844C18.9587 22.0047 23.0497 17.3763 23.0497 11.7924Z" fill="white"/>
</g>
<defs>
<clipPath id="clip0_1042_3585">
<rect width="22.3749" height="22.3749" fill="white" transform="translate(0.674805 0.60498)"/>
</clipPath>
</defs>
</svg>
