<svg width="24" height="23" viewBox="0 0 24 23" fill="none" xmlns="http://www.w3.org/2000/svg">
<g clip-path="url(#clip0_1042_3581)">
<path d="M21.4608 0.60498H2.39409C1.48073 0.60498 0.742188 1.32605 0.742188 2.21755V21.363C0.742188 22.2545 1.48073 22.9799 2.39409 22.9799H21.4608C22.3742 22.9799 23.1171 22.2545 23.1171 21.3673V2.21755C23.1171 1.32605 22.3742 0.60498 21.4608 0.60498ZM7.38037 19.6717H4.05909V8.99121H7.38037V19.6717ZM5.71973 7.53596C4.65343 7.53596 3.79252 6.67505 3.79252 5.61312C3.79252 4.55118 4.65343 3.69027 5.71973 3.69027C6.78167 3.69027 7.64258 4.55118 7.64258 5.61312C7.64258 6.67068 6.78167 7.53596 5.71973 7.53596ZM19.8089 19.6717H16.492V14.4801C16.492 13.2433 16.4702 11.6482 14.7658 11.6482C13.0397 11.6482 12.7774 12.9986 12.7774 14.3927V19.6717H9.46491V8.99121H12.6463V10.4508H12.69C13.1314 9.61176 14.2152 8.72463 15.8278 8.72463C19.1884 8.72463 19.8089 10.9359 19.8089 13.8114V19.6717Z" fill="white"/>
</g>
<defs>
<clipPath id="clip0_1042_3581">
<rect width="22.3749" height="22.3749" fill="white" transform="translate(0.742188 0.60498)"/>
</clipPath>
</defs>
</svg>
