<svg width="276" height="32" viewBox="0 0 276 32" fill="none" xmlns="http://www.w3.org/2000/svg">
<path d="M36.5336 18.2237C32.9095 20.5122 27.1243 21.9904 20.6038 21.9904C9.63377 21.9904 0.742188 17.8035 0.742188 12.6411C0.742188 7.48624 9.63377 3.29932 20.6038 3.29932C27.1243 3.29932 32.9095 4.7775 36.5336 7.06605C34.0875 6.37573 31.1687 5.97054 28.0247 5.97054C19.4633 5.97054 12.5226 8.95692 12.5226 12.6486C12.5226 16.3328 19.4633 19.3267 28.0247 19.3267C31.1687 19.3192 34.0875 18.914 36.5336 18.2237ZM36.3836 9.21954C29.8631 9.21954 24.0704 10.6977 20.4537 12.9863C22.8999 12.2959 25.8187 11.8908 28.9627 11.8908C37.5241 11.8908 44.4648 14.8771 44.4648 18.5688C44.4648 22.2605 37.5241 25.2469 28.9627 25.2469C25.8187 25.2469 22.8999 24.8417 20.4537 24.1514C24.0779 26.4324 29.8631 27.9106 36.3836 27.9106C47.3536 27.9106 56.2452 23.7237 56.2452 18.5688C56.2452 13.4065 47.3536 9.21954 36.3836 9.21954Z" fill="#D64936"/>
<path d="M87.5765 8.25147V11.4353C86.023 10.1356 84.4157 9.48578 82.7546 9.48578C80.9243 9.48578 79.3824 10.1433 78.1288 11.4584C76.8676 12.7657 76.237 14.3653 76.237 16.2572C76.237 18.1259 76.8676 19.7025 78.1288 20.9868C79.39 22.2711 80.9358 22.9132 82.7661 22.9132C83.7121 22.9132 84.5157 22.7594 85.1771 22.4518C85.5462 22.298 85.9269 22.0903 86.3191 21.8289C86.719 21.5674 87.1381 21.2521 87.5765 20.883V24.1245C86.0384 24.9935 84.4234 25.428 82.7315 25.428C80.186 25.428 78.0135 24.5397 76.2139 22.7633C74.422 20.9714 73.5261 18.8104 73.5261 16.2802C73.5261 14.0116 74.2759 11.989 75.7756 10.2125C77.6213 8.03614 80.0091 6.94795 82.9392 6.94795C84.5388 6.94795 86.0845 7.38246 87.5765 8.25147ZM94.7009 16.1188C94.7009 13.6117 95.6199 11.4584 97.4579 9.65882C99.2882 7.85926 101.488 6.95949 104.056 6.95949C106.594 6.95949 108.77 7.86695 110.585 9.68189C112.408 11.4968 113.319 13.677 113.319 16.2226C113.319 18.7835 112.404 20.956 110.574 22.7402C108.736 24.532 106.517 25.428 103.918 25.428C101.618 25.428 99.5535 24.632 97.7232 23.0401C95.7083 21.279 94.7009 18.9719 94.7009 16.1188ZM97.4117 16.1534C97.4117 18.1221 98.0731 19.7409 99.3958 21.0098C100.711 22.2788 102.23 22.9132 103.952 22.9132C105.821 22.9132 107.398 22.2672 108.682 20.9752C109.966 19.6679 110.608 18.076 110.608 16.1995C110.608 14.3 109.974 12.7081 108.705 11.4238C107.444 10.1318 105.883 9.48578 104.022 9.48578C102.168 9.48578 100.603 10.1318 99.3266 11.4238C98.05 12.7004 97.4117 14.2769 97.4117 16.1534ZM127.457 17.5146L132.971 25.105H129.684L124.597 17.8145H124.112V25.105H121.424V7.29402H124.573C126.927 7.29402 128.626 7.73622 129.672 8.62061C130.826 9.60498 131.403 10.9047 131.403 12.5196C131.403 13.7809 131.041 14.8652 130.318 15.7727C129.595 16.6801 128.642 17.2608 127.457 17.5146ZM124.112 15.4728H124.966C127.511 15.4728 128.784 14.4999 128.784 12.5543C128.784 10.7316 127.546 9.82031 125.069 9.82031H124.112V15.4728Z" fill="white"/>
<path d="M151.636 9.94721L149.456 11.2392C149.048 10.5317 148.66 10.0703 148.291 9.85492C147.906 9.60883 147.41 9.48578 146.803 9.48578C146.057 9.48578 145.437 9.69727 144.945 10.1202C144.453 10.5355 144.207 11.0585 144.207 11.6891C144.207 12.5581 144.853 13.2579 146.145 13.7886L147.921 14.5153C149.367 15.0998 150.425 15.815 151.094 16.6609C151.763 17.4992 152.097 18.5297 152.097 19.7525C152.097 21.3905 151.551 22.744 150.459 23.813C149.36 24.8896 147.995 25.428 146.364 25.428C144.818 25.428 143.542 24.9704 142.534 24.0552C141.542 23.1401 140.923 21.8519 140.677 20.1908L143.4 19.591C143.523 20.6369 143.738 21.3598 144.046 21.7597C144.599 22.5287 145.407 22.9132 146.468 22.9132C147.306 22.9132 148.002 22.6325 148.556 22.0711C149.11 21.5097 149.387 20.7984 149.387 19.937C149.387 19.591 149.337 19.2757 149.237 18.9911C149.144 18.6989 148.994 18.4336 148.787 18.1952C148.587 17.9491 148.325 17.7222 148.002 17.5146C147.679 17.2992 147.295 17.0954 146.849 16.9032L145.13 16.188C142.692 15.1575 141.473 13.6501 141.473 11.666C141.473 10.3279 141.985 9.20893 143.007 8.30915C144.03 7.40168 145.303 6.94795 146.826 6.94795C148.879 6.94795 150.482 7.9477 151.636 9.94721ZM158.703 16.1188C158.703 13.6117 159.622 11.4584 161.46 9.65882C163.29 7.85926 165.49 6.95949 168.058 6.95949C170.596 6.95949 172.773 7.86695 174.588 9.68189C176.41 11.4968 177.322 13.677 177.322 16.2226C177.322 18.7835 176.406 20.956 174.576 22.7402C172.738 24.532 170.519 25.428 167.92 25.428C165.621 25.428 163.556 24.632 161.725 23.0401C159.711 21.279 158.703 18.9719 158.703 16.1188ZM161.414 16.1534C161.414 18.1221 162.075 19.7409 163.398 21.0098C164.713 22.2788 166.232 22.9132 167.955 22.9132C169.823 22.9132 171.4 22.2672 172.684 20.9752C173.969 19.6679 174.611 18.076 174.611 16.1995C174.611 14.3 173.976 12.7081 172.707 11.4238C171.446 10.1318 169.885 9.48578 168.024 9.48578C166.17 9.48578 164.606 10.1318 163.329 11.4238C162.052 12.7004 161.414 14.2769 161.414 16.1534ZM187.169 7.29402V18.0221C187.169 19.5525 187.419 20.6715 187.919 21.379C188.665 22.4018 189.715 22.9132 191.068 22.9132C192.43 22.9132 193.483 22.4018 194.229 21.379C194.729 20.6945 194.979 19.5756 194.979 18.0221V7.29402H197.667V18.7604C197.667 20.6369 197.082 22.1826 195.913 23.3977C194.598 24.7512 192.983 25.428 191.068 25.428C189.153 25.428 187.542 24.7512 186.235 23.3977C185.066 22.1826 184.481 20.6369 184.481 18.7604V7.29402H187.169ZM212.232 17.5146L217.746 25.105H214.458L209.371 17.8145H208.887V25.105H206.199V7.29402H209.348C211.701 7.29402 213.401 7.73622 214.447 8.62061C215.6 9.60498 216.177 10.9047 216.177 12.5196C216.177 13.7809 215.816 14.8652 215.093 15.7727C214.37 16.6801 213.416 17.2608 212.232 17.5146ZM208.887 15.4728H209.74C212.286 15.4728 213.559 14.4999 213.559 12.5543C213.559 10.7316 212.32 9.82031 209.844 9.82031H208.887V15.4728ZM237.612 8.25147V11.4353C236.059 10.1356 234.451 9.48578 232.79 9.48578C230.96 9.48578 229.418 10.1433 228.164 11.4584C226.903 12.7657 226.273 14.3653 226.273 16.2572C226.273 18.1259 226.903 19.7025 228.164 20.9868C229.426 22.2711 230.971 22.9132 232.802 22.9132C233.748 22.9132 234.551 22.7594 235.213 22.4518C235.582 22.298 235.963 22.0903 236.355 21.8289C236.755 21.5674 237.174 21.2521 237.612 20.883V24.1245C236.074 24.9935 234.459 25.428 232.767 25.428C230.222 25.428 228.049 24.5397 226.25 22.7633C224.458 20.9714 223.562 18.8104 223.562 16.2802C223.562 14.0116 224.312 11.989 225.811 10.2125C227.657 8.03614 230.045 6.94795 232.975 6.94795C234.574 6.94795 236.12 7.38246 237.612 8.25147ZM255.332 9.82031H248.192V14.1H255.125V16.6263H248.192V22.5787H255.332V25.105H245.504V7.29402H255.332V9.82031Z" fill="#D64936"/>
<path d="M266.468 9.87506L267.912 11.731H266.876L265.557 9.97098V11.731H264.708V7.29017H265.596C266.216 7.29017 266.668 7.40047 266.953 7.62107C267.269 7.87684 267.428 8.21095 267.428 8.62338C267.428 8.90153 267.343 9.1589 267.173 9.39549C267.004 9.62569 266.788 9.77915 266.526 9.85588L266.468 9.87506ZM265.552 9.26121H265.696C266.304 9.26121 266.607 9.0518 266.607 8.63297C266.607 8.24292 266.313 8.04789 265.725 8.04789H265.552V9.26121ZM269.931 9.501C269.931 10.572 269.557 11.4832 268.809 12.2346C268.061 12.9859 267.156 13.3616 266.094 13.3616C265.033 13.3616 264.125 12.9843 263.37 12.2298C262.622 11.4784 262.248 10.5656 262.248 9.49141C262.248 8.89674 262.37 8.35482 262.613 7.86565C262.859 7.34452 263.201 6.90331 263.639 6.54203C264.355 5.95056 265.159 5.65482 266.051 5.65482C266.643 5.65482 267.178 5.76672 267.658 5.99053C268.339 6.28786 268.887 6.75944 269.303 7.40526C269.722 8.05429 269.931 8.75286 269.931 9.501ZM266.066 6.21592C265.19 6.21592 264.438 6.53884 263.812 7.18466C263.182 7.83368 262.867 8.6042 262.867 9.4962C262.867 10.4074 263.182 11.1875 263.812 11.8365C264.438 12.4823 265.199 12.8053 266.094 12.8053C266.98 12.8053 267.738 12.4839 268.368 11.8413C268.994 11.1955 269.307 10.4154 269.307 9.501C269.307 9.01183 269.184 8.50668 268.938 7.98555C268.695 7.49638 268.372 7.10793 267.969 6.82019C267.404 6.41735 266.769 6.21592 266.066 6.21592Z" fill="#D64936"/>
</svg>
