<svg width="23" height="23" viewBox="0 0 23 23" fill="none" xmlns="http://www.w3.org/2000/svg">
<g clip-path="url(#clip0_1042_3583)">
<path d="M7.24693 20.8823C15.6882 20.8823 20.3065 13.887 20.3065 7.82265C20.3065 7.62599 20.3022 7.42497 20.2934 7.22831C21.1918 6.5786 21.9671 5.77384 22.5829 4.85185C21.7462 5.22412 20.8579 5.46724 19.9482 5.57292C20.906 4.99879 21.6232 4.09686 21.9667 3.03433C21.0657 3.56833 20.0803 3.94503 19.0528 4.14826C18.3604 3.41264 17.4451 2.92557 16.4482 2.76236C15.4513 2.59915 14.4284 2.76889 13.5376 3.24533C12.6469 3.72177 11.9379 4.47838 11.5203 5.39818C11.1026 6.31799 10.9996 7.34975 11.2272 8.33395C9.40269 8.24239 7.61778 7.76843 5.98818 6.94279C4.35858 6.11715 2.92068 4.95826 1.7677 3.54126C1.18169 4.5516 1.00237 5.74717 1.26618 6.88498C1.53 8.02279 2.21715 9.01745 3.18798 9.66683C2.45914 9.64369 1.74626 9.44746 1.10825 9.09435V9.15116C1.1076 10.2114 1.47415 11.2392 2.14559 12.0598C2.81704 12.8804 3.75194 13.4431 4.79137 13.6524C4.11621 13.8371 3.4076 13.864 2.72038 13.731C3.01369 14.6429 3.58436 15.4404 4.35275 16.0123C5.12114 16.5842 6.04891 16.902 7.00658 16.9212C5.38074 18.1983 3.37236 18.891 1.3049 18.8877C0.938257 18.8872 0.571972 18.8647 0.208008 18.8204C2.30832 20.1679 4.75154 20.8836 7.24693 20.8823Z" fill="white"/>
</g>
<defs>
<clipPath id="clip0_1042_3583">
<rect width="22.3749" height="22.3749" fill="white" transform="translate(0.208008 0.60498)"/>
</clipPath>
</defs>
</svg>
