<svg width="23" height="23" viewBox="0 0 23 23" fill="none" xmlns="http://www.w3.org/2000/svg">
<g clip-path="url(#clip0_1042_3587)">
<path d="M22.2927 7.31751C22.2927 7.31751 22.0742 5.77486 21.4012 5.09749C20.549 4.20599 19.5963 4.20162 19.1593 4.14918C16.0303 3.92194 11.3325 3.92194 11.3325 3.92194H11.3237C11.3237 3.92194 6.62586 3.92194 3.49686 4.14918C3.05985 4.20162 2.10717 4.20599 1.255 5.09749C0.582005 5.77486 0.36787 7.31751 0.36787 7.31751C0.36787 7.31751 0.140625 9.1311 0.140625 10.9403V12.6359C0.140625 14.4451 0.3635 16.2587 0.3635 16.2587C0.3635 16.2587 0.582005 17.8014 1.25063 18.4787C2.1028 19.3702 3.22155 19.3397 3.71974 19.4358C5.51148 19.6062 11.3281 19.6587 11.3281 19.6587C11.3281 19.6587 16.0303 19.6499 19.1593 19.4271C19.5963 19.3746 20.549 19.3702 21.4012 18.4787C22.0742 17.8014 22.2927 16.2587 22.2927 16.2587C22.2927 16.2587 22.5155 14.4495 22.5155 12.6359V10.9403C22.5155 9.1311 22.2927 7.31751 22.2927 7.31751ZM9.0163 14.6942V8.40566L15.0602 11.5609L9.0163 14.6942Z" fill="white"/>
</g>
<defs>
<clipPath id="clip0_1042_3587">
<rect width="22.3749" height="22.3749" fill="white" transform="translate(0.140625 0.60498)"/>
</clipPath>
</defs>
</svg>
