<svg width="403" height="47" viewBox="0 0 403 47" fill="none" xmlns="http://www.w3.org/2000/svg">
<path d="M52.4166 27.6756C47.109 31.0272 38.6366 33.1919 29.0874 33.1919C13.0217 33.1919 0 27.0602 0 19.4999C0 11.9506 13.0217 5.81885 29.0874 5.81885C38.6366 5.81885 47.109 7.98364 52.4166 11.3352C48.8342 10.3243 44.5596 9.73086 39.9553 9.73086C27.4171 9.73086 17.2524 14.1044 17.2524 19.5109C17.2524 24.9064 27.4171 29.2909 39.9553 29.2909C44.5596 29.2799 48.8342 28.6865 52.4166 27.6756ZM52.1968 14.489C42.6475 14.489 34.1642 16.6538 28.8676 20.0054C32.4499 18.9944 36.7246 18.401 41.3289 18.401C53.8671 18.401 64.0317 22.7746 64.0317 28.1811C64.0317 33.5875 53.8671 37.9611 41.3289 37.9611C36.7246 37.9611 32.4499 37.3677 28.8676 36.3567C34.1752 39.6973 42.6475 41.8621 52.1968 41.8621C68.2624 41.8621 81.2841 35.7304 81.2841 28.1811C81.2841 20.6208 68.2624 14.489 52.1968 14.489Z" fill="#D64936"/>
<path d="M127.169 12.1584V16.8211C124.894 14.9177 122.54 13.966 120.107 13.966C117.427 13.966 115.169 14.929 113.333 16.8549C111.486 18.7695 110.562 21.1121 110.562 23.8827C110.562 26.6195 111.486 28.9284 113.333 30.8092C115.18 32.6901 117.444 33.6305 120.124 33.6305C121.509 33.6305 122.686 33.4052 123.655 32.9547C124.196 32.7295 124.753 32.4254 125.327 32.0425C125.913 31.6595 126.527 31.1978 127.169 30.6572V35.4044C124.916 36.677 122.551 37.3134 120.073 37.3134C116.346 37.3134 113.164 36.0125 110.528 33.4109C107.904 30.7867 106.592 27.6219 106.592 23.9165C106.592 20.594 107.69 17.632 109.886 15.0303C112.589 11.843 116.086 10.2494 120.378 10.2494C122.72 10.2494 124.984 10.8857 127.169 12.1584ZM137.603 23.68C137.603 20.0084 138.948 16.8549 141.64 14.2194C144.321 11.584 147.542 10.2663 151.303 10.2663C155.02 10.2663 158.207 11.5952 160.865 14.2532C163.535 16.9112 164.869 20.1041 164.869 23.832C164.869 27.5825 163.529 30.7642 160.849 33.3771C158.157 36.0013 154.907 37.3134 151.101 37.3134C147.733 37.3134 144.709 36.1477 142.029 33.8163C139.078 31.2372 137.603 27.8584 137.603 23.68ZM141.573 23.7307C141.573 26.6139 142.541 28.9847 144.478 30.843C146.404 32.7013 148.629 33.6305 151.151 33.6305C153.888 33.6305 156.197 32.6844 158.078 30.7923C159.959 28.8777 160.899 26.5463 160.899 23.7983C160.899 21.0164 159.97 18.685 158.112 16.8042C156.265 14.9121 153.978 13.966 151.253 13.966C148.538 13.966 146.247 14.9121 144.377 16.8042C142.507 18.6738 141.573 20.9826 141.573 23.7307ZM185.574 25.7242L193.65 36.8403H188.835L181.385 26.1634H180.675V36.8403H176.739V10.7562H181.351C184.797 10.7562 187.286 11.4038 188.818 12.699C190.507 14.1406 191.352 16.044 191.352 18.4091C191.352 20.2562 190.823 21.8442 189.764 23.1732C188.705 24.5022 187.309 25.3525 185.574 25.7242ZM180.675 22.7339H181.925C185.653 22.7339 187.517 21.3092 187.517 18.4598C187.517 15.7906 185.704 14.4559 182.077 14.4559H180.675V22.7339Z" fill="#1D0800"/>
<path d="M220.984 14.6418L217.791 16.5339C217.194 15.4977 216.625 14.822 216.085 14.5066C215.522 14.1462 214.795 13.966 213.905 13.966C212.813 13.966 211.906 14.2757 211.186 14.8952C210.465 15.5034 210.104 16.2692 210.104 17.1927C210.104 18.4654 211.05 19.4903 212.942 20.2674L215.544 21.3317C217.662 22.1877 219.21 23.2351 220.19 24.474C221.17 25.7016 221.66 27.2108 221.66 29.0016C221.66 31.4005 220.86 33.3827 219.261 34.9482C217.65 36.525 215.651 37.3134 213.263 37.3134C211 37.3134 209.13 36.6432 207.655 35.303C206.202 33.9627 205.295 32.0763 204.935 29.6435L208.922 28.7651C209.102 30.2968 209.417 31.3555 209.868 31.9411C210.679 33.0674 211.861 33.6305 213.416 33.6305C214.643 33.6305 215.662 33.2194 216.473 32.3972C217.284 31.5751 217.69 30.5333 217.69 29.2719C217.69 28.7651 217.616 28.3033 217.47 27.8866C217.335 27.4586 217.115 27.07 216.811 26.7209C216.518 26.3605 216.135 26.0282 215.662 25.7242C215.189 25.4088 214.626 25.1103 213.973 24.8288L211.456 23.7814C207.886 22.2722 206.1 20.0647 206.1 17.159C206.1 15.1993 206.849 13.5606 208.347 12.2428C209.845 10.9139 211.709 10.2494 213.939 10.2494C216.946 10.2494 219.295 11.7135 220.984 14.6418ZM231.334 23.68C231.334 20.0084 232.68 16.8549 235.371 14.2194C238.052 11.584 241.273 10.2663 245.035 10.2663C248.751 10.2663 251.939 11.5952 254.597 14.2532C257.266 16.9112 258.601 20.1041 258.601 23.832C258.601 27.5825 257.26 30.7642 254.58 33.3771C251.888 36.0013 248.639 37.3134 244.832 37.3134C241.465 37.3134 238.441 36.1477 235.76 33.8163C232.809 31.2372 231.334 27.8584 231.334 23.68ZM235.304 23.7307C235.304 26.6139 236.272 28.9847 238.21 30.843C240.136 32.7013 242.36 33.6305 244.883 33.6305C247.62 33.6305 249.928 32.6844 251.809 30.7923C253.69 28.8777 254.631 26.5463 254.631 23.7983C254.631 21.0164 253.701 18.685 251.843 16.8042C249.996 14.9121 247.71 13.966 244.984 13.966C242.27 13.966 239.978 14.9121 238.108 16.8042C236.239 18.6738 235.304 20.9826 235.304 23.7307ZM273.023 10.7562V26.4675C273.023 28.7087 273.389 30.3474 274.121 31.3836C275.213 32.8815 276.75 33.6305 278.733 33.6305C280.726 33.6305 282.269 32.8815 283.362 31.3836C284.094 30.3812 284.46 28.7425 284.46 26.4675V10.7562H288.396V27.5487C288.396 30.2968 287.54 32.5605 285.828 34.34C283.902 36.3223 281.537 37.3134 278.733 37.3134C275.928 37.3134 273.569 36.3223 271.654 34.34C269.942 32.5605 269.086 30.2968 269.086 27.5487V10.7562H273.023ZM309.727 25.7242L317.802 36.8403H312.987L305.537 26.1634H304.828V36.8403H300.891V10.7562H305.503C308.95 10.7562 311.439 11.4038 312.97 12.699C314.66 14.1406 315.505 16.044 315.505 18.4091C315.505 20.2562 314.975 21.8442 313.917 23.1732C312.858 24.5022 311.461 25.3525 309.727 25.7242ZM304.828 22.7339H306.078C309.806 22.7339 311.67 21.3092 311.67 18.4598C311.67 15.7906 309.856 14.4559 306.23 14.4559H304.828V22.7339ZM346.896 12.1584V16.8211C344.621 14.9177 342.267 13.966 339.834 13.966C337.154 13.966 334.896 14.929 333.06 16.8549C331.213 18.7695 330.289 21.1121 330.289 23.8827C330.289 26.6195 331.213 28.9284 333.06 30.8092C334.907 32.6901 337.171 33.6305 339.851 33.6305C341.237 33.6305 342.414 33.4052 343.382 32.9547C343.923 32.7295 344.48 32.4254 345.055 32.0425C345.64 31.6595 346.254 31.1978 346.896 30.6572V35.4044C344.644 36.677 342.278 37.3134 339.801 37.3134C336.073 37.3134 332.891 36.0125 330.256 33.4109C327.631 30.7867 326.319 27.6219 326.319 23.9165C326.319 20.594 327.417 17.632 329.614 15.0303C332.317 11.843 335.814 10.2494 340.105 10.2494C342.447 10.2494 344.711 10.8857 346.896 12.1584ZM372.847 14.4559H362.39V20.7236H372.543V24.4233H362.39V33.1406H372.847V36.8403H358.454V10.7562H372.847V14.4559Z" fill="#D64936"/>
<path d="M389.157 15.5034L391.271 18.2214H389.754L387.822 15.6438V18.2214H386.579V11.7178H387.879C388.787 11.7178 389.45 11.8793 389.866 12.2024C390.33 12.577 390.562 13.0663 390.562 13.6703C390.562 14.0776 390.437 14.4545 390.189 14.801C389.941 15.1381 389.625 15.3629 389.241 15.4753L389.157 15.5034ZM387.815 14.6044H388.026C388.916 14.6044 389.361 14.2977 389.361 13.6843C389.361 13.1131 388.93 12.8275 388.068 12.8275H387.815V14.6044ZM394.228 14.9555C394.228 16.5241 393.68 17.8585 392.584 18.9588C391.489 20.0592 390.164 20.6093 388.609 20.6093C387.055 20.6093 385.725 20.0568 384.62 18.9518C383.524 17.8515 382.976 16.5147 382.976 14.9415C382.976 14.0706 383.154 13.277 383.51 12.5606C383.871 11.7974 384.372 11.1512 385.013 10.6221C386.062 9.75592 387.24 9.32281 388.546 9.32281C389.412 9.32281 390.196 9.48669 390.899 9.81445C391.896 10.2499 392.699 10.9405 393.308 11.8863C393.921 12.8368 394.228 13.8599 394.228 14.9555ZM388.567 10.1445C387.284 10.1445 386.184 10.6174 385.266 11.5633C384.344 12.5138 383.882 13.6422 383.882 14.9485C383.882 16.2829 384.344 17.4254 385.266 18.3759C386.184 19.3217 387.298 19.7946 388.609 19.7946C389.906 19.7946 391.016 19.3241 391.938 18.3829C392.856 17.4371 393.315 16.2947 393.315 14.9555C393.315 14.2392 393.134 13.4994 392.774 12.7362C392.418 12.0198 391.945 11.4509 391.355 11.0295C390.526 10.4395 389.597 10.1445 388.567 10.1445Z" fill="#D64936"/>
</svg>
