<svg width="20" height="17" viewBox="0 0 20 17" fill="none" xmlns="http://www.w3.org/2000/svg">
<path fill-rule="evenodd" clip-rule="evenodd" d="M10.0639 0.375L19.3779 15.2773H0.75L10.0639 0.375Z" fill="#D64936"/>
<path d="M10.6823 4.79938L10.601 10.7831H9.65787L9.57657 4.79938H10.6823ZM10.1294 13.1896C9.92887 13.1896 9.75679 13.1177 9.61316 12.9741C9.46953 12.8305 9.39771 12.6584 9.39771 12.4579C9.39771 12.2573 9.46953 12.0852 9.61316 11.9416C9.75679 11.798 9.92887 11.7261 10.1294 11.7261C10.33 11.7261 10.502 11.798 10.6457 11.9416C10.7893 12.0852 10.8611 12.2573 10.8611 12.4579C10.8611 12.5906 10.8272 12.7126 10.7595 12.8237C10.6945 12.9348 10.6064 13.0242 10.4953 13.092C10.3869 13.157 10.2649 13.1896 10.1294 13.1896Z" fill="white"/>
</svg>
