<svg width="296" height="173" viewBox="0 0 296 173" fill="none" xmlns="http://www.w3.org/2000/svg">
<path d="M5.2373 0.99759H290.096C292.857 0.99759 295.096 3.23617 295.096 5.99759V145.367C295.096 146.698 294.564 147.975 293.62 148.914L271.609 170.78C270.672 171.711 269.405 172.233 268.085 172.233H122.622C120.773 172.233 119.075 171.212 118.207 169.579L116.491 166.35C115.623 164.717 113.925 163.697 112.076 163.697H69.4829C67.6337 163.697 65.9354 164.717 65.0677 166.35L63.3517 169.579C62.484 171.212 60.7857 172.233 58.9365 172.233H5.2373C2.47589 172.233 0.237305 169.994 0.237305 167.233V5.99759C0.237305 3.23617 2.47589 0.99759 5.2373 0.99759Z" fill="white"/>
</svg>
