<svg width="1301" height="401" viewBox="0 0 1301 401" fill="none" xmlns="http://www.w3.org/2000/svg">
<path d="M10.2373 0.811523H1290.24C1295.76 0.811523 1300.24 5.28868 1300.24 10.8115V286.669C1300.24 289.322 1299.18 291.865 1297.31 293.74L1193.17 397.883C1191.29 399.758 1188.75 400.812 1186.1 400.812H530.713C528.061 400.812 525.517 399.758 523.642 397.883L509.5 383.74C507.624 381.865 505.081 380.812 502.428 380.812H296.427C293.775 380.812 291.231 381.865 289.356 383.74L275.214 397.883C273.339 399.758 270.795 400.812 268.143 400.812H10.2373C4.71448 400.812 0.237305 396.334 0.237305 390.812V10.8115C0.237305 5.28868 4.71448 0.811523 10.2373 0.811523Z" fill="white"/>
</svg>
